<?xml version="1.0" encoding="utf-8"?>
<!DOCTYPE svg PUBLIC "-//W3C//DTD SVG 1.1//EN" "http://www.w3.org/Graphics/SVG/1.1/DTD/svg11.dtd">
<svg style="width:308px;height:308px;" version="1.1" id="图形" xmlns="http://www.w3.org/2000/svg" xmlns:xlink="http://www.w3.org/1999/xlink" x="0px" y="0px" width="1024px" height="1024px" viewBox="0 0 1024 1024" enable-background="new 0 0 1024 1024" xml:space="preserve">
  <path class="svgpath" data-index="path_0" fill="#63595A" d="M737.003544 66.113767 287.490713 66.113767c-29.912263 0-54.155411 24.243147-54.155411 54.150294l0 785.733385c0 29.90817 24.243147 54.150294 54.155411 54.150294l449.51283 0c29.903054 0 54.149271-24.243147 54.149271-54.150294L791.152814 120.264061C791.152814 90.362031 766.906597 66.113767 737.003544 66.113767L737.003544 66.113767zM462.099497 133.815705l100.286054 0c7.91732 0 14.331403 6.411013 14.331403 14.32731 0 7.912204-6.414083 14.328333-14.331403 14.328333l-100.286054 0c-7.912204 0-14.323217-6.41613-14.323217-14.328333C447.77628 140.226718 454.187293 133.815705 462.099497 133.815705L462.099497 133.815705zM512.2415 917.64881c-24.529673 0-44.410466-19.884886-44.410466-44.410466 0-24.529673 19.87977-44.420699 44.410466-44.420699 24.531719 0 44.415582 19.890003 44.415582 44.420699C556.657082 897.763924 536.77322 917.64881 512.2415 917.64881L512.2415 917.64881zM738.607064 791.574417 285.876959 791.574417 285.876959 209.908754l452.730105 0L738.607064 791.574417 738.607064 791.574417zM738.607064 791.574417" />

</svg>
